<svg width="111" height="111" viewBox="0 0 111 111" fill="none" xmlns="http://www.w3.org/2000/svg">
<path d="M1.75 23.25C1.75 17.5478 4.01517 12.0792 8.0472 8.0472C12.0792 4.01517 17.5478 1.75 23.25 1.75H87.75C93.4522 1.75 98.9208 4.01517 102.953 8.0472C106.985 12.0792 109.25 17.5478 109.25 23.25V87.75C109.25 93.4522 106.985 98.9208 102.953 102.953C98.9208 106.985 93.4522 109.25 87.75 109.25H23.25C17.5478 109.25 12.0792 106.985 8.0472 102.953C4.01517 98.9208 1.75 93.4522 1.75 87.75V23.25Z" stroke="#676D7D" stroke-width="2" stroke-linecap="round" stroke-linejoin="round"/>
<path d="M36.6875 50.125C44.1088 50.125 50.125 44.1088 50.125 36.6875C50.125 29.2662 44.1088 23.25 36.6875 23.25C29.2662 23.25 23.25 29.2662 23.25 36.6875C23.25 44.1088 29.2662 50.125 36.6875 50.125Z" stroke="#676D7D" stroke-width="2" stroke-linecap="round" stroke-linejoin="round"/>
<path d="M69.0773 58.8381L23.25 109.25H88.4649C93.9774 109.25 99.2642 107.06 103.162 103.162C107.06 99.2645 109.25 93.9777 109.25 88.4651V87.7503C109.25 85.2455 108.309 84.2834 106.616 82.429L84.955 58.8059C83.9454 57.7046 82.7174 56.8259 81.3493 56.2257C79.9812 55.6256 78.503 55.3172 77.009 55.3202C75.515 55.3232 74.0381 55.6376 72.6724 56.2434C71.3068 56.8491 70.0823 57.7328 69.0773 58.8381V58.8381Z" stroke="#676D7D" stroke-width="2" stroke-linecap="round" stroke-linejoin="round"/>
</svg>
